<?xml version="1.0" encoding="iso-8859-1"?>
<!-- Generator: Adobe Illustrator 25.2.1, SVG Export Plug-In . SVG Version: 6.00 Build 0)  -->
<svg version="1.1" id="Layer_1" xmlns="http://www.w3.org/2000/svg" xmlns:xlink="http://www.w3.org/1999/xlink" x="0px" y="0px"
	 viewBox="0 0 936.539 851.923" style="enable-background:new 0 0 936.539 851.923;" xml:space="preserve">
<g>
	<path style="fill:#fff;" d="M112.479,251.523c8.586,6.893,17.727,12.959,26.764,19.059c-0.844,1.044-1.624,2.125-2.239,3.204
		c-0.656,1.151-1.146,2.302-1.614,3.56c-12.667-11.22-25.704-21.792-38.945-32.006c0.761-0.9,1.42-1.765,1.993-2.771
		c0.533-0.936,0.981-2.014,1.327-3.055c12.939,0.416,27.559,0.645,39.372,0.419c-6.084-10.995-13.358-22.954-20.354-33.805
		c0.761-0.9,1.501-1.908,2.075-2.915c0.574-1.007,1.022-2.086,1.408-3.196c15.455,6.328,36.846,15.18,46.692,18.403
		c-1.295,1.835-2.526,3.707-3.632,5.649c-1.107,1.943-2.129,4.029-3.089,6.154c-8.983-4.451-20.316-9.288-30.668-13.661
		l-0.082,0.144c6.623,10.921,13.225,21.734,19.971,32.436c-0.309,0.396-0.658,0.864-0.904,1.296c-0.246,0.432-0.47,0.971-0.654,1.44
		c-12.357-0.274-24.817-0.512-37.338-0.499L112.479,251.523z"/>
	<path style="fill:#fff;" d="M238.227,145.051c-2.03,1.71-3.867,3.139-5.557,4.727c-1.69,1.587-3.292,3.388-4.883,5.081
		c-4.62-2.378-9.41-4.695-14.271-6.846c-2.644,2.385-5.228,4.713-7.823,7.151c-2.112,1.984-4.115,3.964-6.177,6
		c1.723,5.099,3.748,9.915,6.003,14.612c-1.064,0.802-2.117,1.495-3.083,2.402c-0.965,0.907-1.723,1.915-2.771,3.097
		c-2.515-8.603-11.014-35.787-17.065-52.625c0.883-0.632,1.755-1.155,2.54-1.892c0.785-0.737,1.361-1.575,2.047-2.417
		C203.556,131.486,225.604,140.807,238.227,145.051z M209.218,146.22c-5.743-2.606-11.328-5.165-17.104-7.444
		c1.793,6.02,3.818,11.923,6.061,17.817L209.218,146.22z"/>
	<path style="fill:#fff;" d="M268.018,89.371c-3.983-7.012-6.866-11.751-10.428-17.01c1.655-0.775,3.706-1.692,6.081-3.042
		c2.376-1.35,4.213-2.642,5.726-3.671c2.698,5.755,5.293,10.657,9.276,17.669l4.837,8.515c3.983,7.012,6.866,11.751,10.428,17.015
		c-1.655,0.774-3.706,1.691-6.081,3.041c-2.375,1.35-4.213,2.642-5.725,3.668c-2.698-5.755-5.293-10.658-9.276-17.669
		L268.018,89.371z"/>
	<path style="fill:#fff;" d="M339.645,55.661c-2.109-7.783-3.719-13.09-5.855-19.071c1.795-0.337,4.01-0.714,6.646-1.429
		c3.516-0.954,7.338-2.362,14.37-4.273c18.22-4.94,32.14-3.27,36.885,14.242c4.143,15.288-5.753,28.787-20.776,32.86
		c-7.991,2.166-13.519,3.292-17.674,4.419c-2.637,0.715-4.738,1.508-6.458,2.124c-1.178-6.245-2.468-11.639-4.577-19.421
		L339.645,55.661z M354.446,63.434c1.017,3.752,3.314,12.23,3.751,13.529c1.617-0.364,3.812-0.81,7.089-1.698
		c11.986-3.251,17.657-12.396,13.741-26.85c-3.088-11.396-12.28-16.512-23.308-13.522c-3.836,1.04-5.796,1.721-8.216,2.601
		c0.278,1.342,2.575,9.819,3.592,13.572L354.446,63.434z"/>
	<path style="fill:#fff;" d="M479.054,25.548c-1.672-4.131-4.867-6.271-9.917-6.354c-5.051-0.082-8.66,2.884-8.717,6.339
		c-0.174,10.655,25.039,8.399,24.772,24.741c-0.157,9.647-9.042,16.128-22.206,15.914c-5.961-0.097-10.904-1.689-13.279-3.311
		c1.13-3.294,1.918-5.874,2.55-9.104l1.573,0.025c0.842,4.19,4.592,7.852,11.298,7.96c6.458,0.104,9.741-3.154,9.807-7.186
		c0.178-10.871-24.542-8.391-24.275-24.733c0.162-9.935,9.028-15.264,18.88-15.104c5.962,0.097,10.41,1.537,13.521,3.748
		c-1.03,2.216-1.638,3.934-2.767,7.084L479.054,25.548z"/>
	<path style="fill:#fff;" d="M558.4,38.079c0.67-2.653,1.305-5.166,1.312-6.204c-3.131-0.792-9.98-2.078-14.92-2.809
		c0.505-0.986,0.912-1.923,1.177-2.97c0.265-1.047,0.352-2.065,0.375-3.173c7.252,2.056,10.829,3.109,20.784,5.625
		c9.954,2.517,13.602,3.29,20.479,4.806c-0.506,0.986-0.913,1.923-1.178,2.97c-0.265,1.047-0.352,2.065-0.375,3.176
		c-4.212-1.585-10.849-3.708-14.06-4.52c-0.408,0.937-1.043,3.45-1.713,6.103l-4.41,17.452c-1.976,7.819-3.173,13.234-4.244,19.499
		c-1.731-0.586-3.845-1.343-6.494-2.013c-2.649-0.669-4.869-1.008-6.671-1.315c2.034-6.021,3.553-11.356,5.528-19.175L558.4,38.079z
		"/>
	<path style="fill:#fff;" d="M671.918,69.802c15.197,8.783,22.99,22.933,14.308,37.959c-7.133,12.345-24.331,15.796-40.317,6.557
		c-15.126-8.741-23.422-22.517-14.415-38.104C638.59,63.931,655.287,60.19,671.918,69.802z M669.649,73.231
		c-9.821-5.675-20.527-0.386-26.724,10.338c-7.674,13.28-3.315,21.954,4.714,26.594c8.602,4.971,19.732,3.086,27.586-10.505
		C681.458,88.871,678.896,78.575,669.649,73.231z"/>
	<path style="fill:#fff;" d="M752.28,130.788c0.681,1.062,1.413,2.074,2.253,2.99c0.839,0.915,1.785,1.734,2.783,2.501
		c-0.381,16.526-0.765,32.942-0.978,49.652c8.439-7.737,22.873-20.973,24.87-23.587c0.68,1.062,1.413,2.075,2.253,2.99
		c0.839,0.915,1.784,1.733,2.782,2.501c-16.339,13.184-23.397,19.656-37.513,32.6c-0.625-1.001-1.246-1.891-2.029-2.746
		c-0.783-0.854-1.617-1.551-2.447-2.138c0.932-16.245,1.359-33.039,1.34-50.321c-4.092,3.528-8.497,7.566-12.477,11.216
		c-8.491,7.786-11.295,10.694-13.091,12.677c-0.736-1.123-1.525-2.196-2.364-3.112c-0.84-0.915-1.841-1.795-2.84-2.564
		c1.819-1.106,16.351-12.745,27.177-22.671C746.775,136.395,749.789,133.183,752.28,130.788z"/>
	<path style="fill:#fff;" d="M807.59,235.825c7.177-3.678,12.034-6.354,17.446-9.684c2.164,4.38,4.174,8.933,6.402,13.281
		c3.701,7.222,7.001,13.346,8.213,15.237c-0.844,0.247-1.688,0.493-2.842,1.084c-1.346,0.69-1.847,1.133-2.732,1.77
		c-2.55-5.764-6.634-14.836-7.767-17.046c-4.866,2.028-9.479,4.393-14.156,6.79c3.414,6.345,5.959,10.995,9.086,16.466
		c-1.625,0.46-2.239,0.683-3.072,1.109c-0.705,0.361-1.206,0.804-2.438,1.712c-2.485-5.797-5.126-11.422-7.996-17.022
		c-2.691,1.379-5.483,2.717-8.239,4.129c-2.69,1.379-5.408,2.865-7.896,4.326c2.833,5.526,5.997,11.069,9.482,16.45
		c-0.973,0.312-1.688,0.494-3.034,1.183c-1.346,0.689-1.911,1.165-2.604,1.706c-1.295-2.685-2.814-6.28-6.288-13.06
		c-6.156-12.012-7.368-13.903-8.327-15.458c5.865-2.448,10.874-4.829,18.05-8.507L807.59,235.825z"/>
</g>
<g>
	<path style="fill:#fff;" d="M108.853,620.049c-2.212,0.043-4.382,0.342-6.309,0.984c-3.706-3.097-7.2-7.762-10.117-13.893
		c-8.252-17.346-3.697-32.074,8.591-37.92c17.945-8.536,31.488,2.167,38.958,17.868c2.49,5.233,4.254,12.463,4.07,16.769
		c-2.608,0.049-5.132,0.607-7.45,1.435l-0.498-1.047c2.252-5.655,2.194-10.304-0.331-15.612c-3.806-8-14.156-14.171-27.94-7.613
		c-13.394,6.371-14.321,17.998-10.23,26.597c2.276,4.785,6.859,9.39,11.314,11.213L108.853,620.049z"/>
	<path style="fill:#fff;" d="M167.455,713.19c-1.613-2.108-2.956-4.01-4.462-5.772c-1.507-1.762-3.232-3.446-4.848-5.11
		c2.59-4.504,5.128-9.181,7.503-13.937c-2.259-2.752-4.465-5.442-6.779-8.148c-1.884-2.203-3.769-4.296-5.707-6.451
		c-5.174,1.483-10.079,3.281-14.877,5.313c-0.751-1.1-1.395-2.185-2.256-3.19c-0.861-1.007-1.833-1.81-2.964-2.912
		c8.71-2.111,36.263-9.333,53.367-14.593c0.59,0.911,1.072,1.807,1.771,2.624c0.699,0.818,1.509,1.433,2.318,2.16
		C182.621,679.194,172.284,700.784,167.455,713.19z M167.639,684.164c2.872-5.615,5.688-11.074,8.233-16.738
		c-6.098,1.511-12.089,3.257-18.081,5.223L167.639,684.164z"/>
	<path style="fill:#fff;" d="M244.389,715.147c0.917,0.864,1.874,1.669,2.911,2.354c1.037,0.685,2.153,1.248,3.308,1.758
		c3.644,16.124,7.258,32.142,11.108,48.402c6.308-9.554,17.099-25.898,18.4-28.927c0.918,0.865,1.875,1.67,2.912,2.354
		c1.037,0.685,2.152,1.249,3.308,1.758c-12.65,16.756-17.927,24.748-28.48,40.732c-0.848-0.818-1.668-1.532-2.635-2.171
		c-0.968-0.639-1.945-1.111-2.894-1.478c-3.041-15.985-6.704-32.381-10.919-49.141c-3.114,4.415-6.407,9.402-9.382,13.909
		c-6.348,9.614-8.362,13.116-9.623,15.477c-0.987-0.911-2.013-1.761-3.05-2.445c-1.037-0.685-2.222-1.294-3.377-1.798
		c1.496-1.515,12.768-16.333,20.862-28.592C240.41,721.929,242.553,718.082,244.389,715.147z"/>
	<path style="fill:#fff;" d="M364.283,773.619c16.856,4.897,27.804,16.775,22.961,33.438
		c-3.979,13.689-19.857,21.147-37.589,15.995c-16.777-4.874-28.124-16.269-23.1-33.553
		C330.514,775.878,345.836,768.259,364.283,773.619z M362.899,777.49c-10.893-3.165-20.028,4.528-23.484,16.42
		c-4.281,14.727,2.024,22.106,10.93,24.693c9.541,2.772,19.9-1.716,24.281-16.787C378.103,789.855,373.156,780.47,362.899,777.49z"
		/>
	<path style="fill:#fff;" d="M446.491,808.625c0.13-8.063,0.054-13.609-0.341-19.955c4.884,0.151,9.847,0.52,14.732,0.599
		c8.113,0.132,15.07,0.101,17.31-0.079c-0.18,0.861-0.358,1.723-0.38,3.018c-0.024,1.512,0.131,2.163,0.279,3.247
		c-6.287-0.462-16.214-1.127-18.698-1.167c-0.499,5.249-0.582,10.432-0.667,15.688c7.206-0.027,12.506-0.086,18.804-0.273
		c-0.358,1.65-0.451,2.297-0.467,3.233c-0.013,0.792,0.143,1.442,0.366,2.96c-6.285-0.534-12.491-0.851-18.784-0.953
		c-0.048,3.024-0.181,6.118-0.231,9.214c-0.049,3.023-0.016,6.12,0.103,9.003c6.209,0.101,12.589-0.084,18.975-0.629
		c-0.182,1.006-0.358,1.723-0.383,3.234c-0.024,1.512,0.129,2.234,0.281,3.102c-2.98-0.12-6.866-0.472-14.483-0.596
		c-13.496-0.219-15.734-0.039-17.558,0.076c0.599-6.327,0.853-11.868,0.983-19.932L446.491,808.625z"/>
	<path style="fill:#fff;" d="M627.217,797.93c-0.173,2.205-0.088,4.394,0.362,6.375c-3.445,3.384-8.43,6.405-14.817,8.707
		c-18.071,6.514-32.283,0.539-36.897-12.263c-6.738-18.694,5.24-31.124,21.599-37.021c5.452-1.965,12.82-3.014,17.087-2.408
		c-0.207,2.6,0.103,5.167,0.698,7.555l-1.09,0.393c-5.409-2.796-10.041-3.192-15.571-1.199c-8.335,3.004-15.49,12.701-10.314,27.06
		c5.029,13.953,16.511,16.014,25.469,12.785c4.985-1.797,10.017-5.906,12.268-10.162L627.217,797.93z"/>
	<path style="fill:#fff;" d="M671.725,749.814c-4.535-6.667-7.79-11.157-11.765-16.118c1.587-0.905,3.558-1.984,5.816-3.521
		c2.26-1.536,3.986-2.973,5.412-4.113c3.152,5.518,6.134,10.193,10.67,16.86l5.507,8.096c2.997,4.404,6.144,8.882,8.317,11.931
		c5.136-3.493,10.245-7.316,15.152-11.438c0.43,0.927,0.698,1.615,1.549,2.865s1.393,1.752,2.015,2.373
		c-2.505,1.617-5.885,3.567-12.184,7.853c-11.16,7.591-12.887,9.026-14.312,10.17c-3.152-5.517-6.134-10.194-10.67-16.86
		L671.725,749.814z"/>
	<path style="fill:#fff;" d="M750.883,701.466c-5.888-5.079-8.724-7.744-12.649-11.13c-5.779-4.985-9.54-8.011-11.447-9.437
		c1.624-1.552,3.248-3.213,4.708-4.905c1.461-1.692,2.866-3.541,4.163-5.375c6.385,6.928,12,11.882,18.325,17.337
		c13.303,11.475,19.27,8.968,26.302,0.819c8.654-10.029-0.183-18.854-10.323-27.602c-5.016-4.327-10.139-8.418-15.426-12.43
		c1.084-0.925,2.112-1.896,3.032-2.962c0.919-1.065,1.676-2.162,2.432-3.371c2.892,3.151,10.31,10.315,19.741,18.45
		c12.65,10.911,12.42,21.757,1.926,33.917C772.416,705.498,761.133,710.307,750.883,701.466z"/>
	<path style="fill:#fff;" d="M808.073,602.524c-7.306-3.413-12.398-5.609-18.349-7.841c0.901-1.589,2.043-3.523,3.2-5.998
		c1.997-4.276,3.984-9.379,5.982-13.655c4.205-9.001,10.08-13.751,17.19-10.429c7.11,3.321,6.571,12.299,5.05,17.254l0.131,0.062
		c2.334-4.484,9.375-12.07,17.268-8.383c9.328,4.357,9.051,14.646,4.88,23.572c-1.857,3.976-3.726,7.123-5.479,10.874
		c-1.262,2.7-2.573,6.018-3.214,7.729c-5.53-3.132-10.482-5.628-17.788-9.041L808.073,602.524z M800.768,580.743
		c-1.017,2.175-1.196,2.731-1.521,3.767c3.126,1.644,6.709,3.5,8.927,4.536c2.348,1.097,4.471,1.997,6.688,3.033l1.577-3.376
		c1.998-4.275,1.256-9.831-4.289-12.421C807.975,574.332,803.536,574.817,800.768,580.743z M820.087,590.589
		c-0.631,1.351-1.021,2.356-1.442,3.256c1.827,0.854,3.618,1.782,6.293,3.031c4.109,1.92,9.202,4.116,11.485,5.183
		c0.696-1.32,1.287-2.415,2.058-4.064c2.068-4.426,0.659-9.745-5.016-12.396C827.398,582.765,822.891,584.588,820.087,590.589z"/>
</g>
<path style="fill:#fff;" d="M47.11,481.005l-34.725-99.566c0,0,170.477-90.689,351.292-43.04
	c119.781,31.803,243.285,131.817,372.743,41.917c0,0-111.954,100.705-298.57,23.975c-79.061-32.507-157.106-81.063-322.976,11.761
	C61.833,445.606,47.11,481.005,47.11,481.005z"/>
<path style="fill:#fff;" d="M265.348,438.975c0,0,56.19-37.083,159.351,2.473c103.149,39.558,139.919,65.323,272.167,14.272
	c29.898-11.541,37.083-3.483,37.083-3.483S551.897,622.376,535.04,640.356c-16.856,17.981-74.378,77.991-74.378,103.163
	c0,0-92.824-61.92-141.372-135.527C265.236,526.405,265.348,438.975,265.348,438.975z"/>
<path style="fill:#fff;" d="M814.075,354.806c0,0,20.902-28.319,57.425-32.14c36.523-3.82,49.559,0.899,49.559,0.899
	s-18.562,26.821-18.091,47.087c0.351,15.026,4.943,26.97,18.091,40.905c0,0-11.658,1.903-25.032-6.188
	c-13.373-8.091-14.868-18.537-49.593-39.889C832.835,357.052,814.075,354.806,814.075,354.806z"/>
<path style="fill:#fff;" d="M476.112,131.534c-53.279,0-96.479,43.2-96.479,96.489c0,44.986,30.787,82.78,72.439,93.466
	c-18.84-11.436-31.471-32.085-31.471-55.732c0-36.023,29.202-65.225,65.212-65.225c36.021,0,65.221,29.202,65.221,65.225
	c0,11.78-3.167,22.802-8.632,32.34c18.584-17.587,30.198-42.469,30.198-70.074C572.6,174.734,529.4,131.534,476.112,131.534z"/>
</svg>
