<?xml version="1.0" encoding="utf-8"?>
<svg viewBox="0 0 936.539 851.923" style="enable-background:new 0 0 936.539 851.923;" xmlns="http://www.w3.org/2000/svg">
  <path style="fill: rgb(14, 96, 184);" d="M47.11,481.005l-34.725-99.566c0,0,170.477-90.689,351.292-43.04 c119.781,31.803,243.285,131.817,372.743,41.917c0,0-111.954,100.705-298.57,23.975c-79.061-32.507-157.106-81.063-322.976,11.761 C61.833,445.606,47.11,481.005,47.11,481.005z"/>
  <path style="fill: rgb(14, 96, 184);" d="M265.348,438.975c0,0,56.19-37.083,159.351,2.473c103.149,39.558,139.919,65.323,272.167,14.272 c29.898-11.541,37.083-3.483,37.083-3.483S551.897,622.376,535.04,640.356c-16.856,17.981-74.378,77.991-74.378,103.163 c0,0-92.824-61.92-141.372-135.527C265.236,526.405,265.348,438.975,265.348,438.975z"/>
  <path style="fill: rgb(14, 96, 184);" d="M814.075,354.806c0,0,20.902-28.319,57.425-32.14c36.523-3.82,49.559,0.899,49.559,0.899 s-18.562,26.821-18.091,47.087c0.351,15.026,4.943,26.97,18.091,40.905c0,0-11.658,1.903-25.032-6.188 c-13.373-8.091-14.868-18.537-49.593-39.889C832.835,357.052,814.075,354.806,814.075,354.806z"/>
  <path style="fill: rgb(14, 96, 184);" d="M476.112,131.534c-53.279,0-96.479,43.2-96.479,96.489c0,44.986,30.787,82.78,72.439,93.466 c-18.84-11.436-31.471-32.085-31.471-55.732c0-36.023,29.202-65.225,65.212-65.225c36.021,0,65.221,29.202,65.221,65.225 c0,11.78-3.167,22.802-8.632,32.34c18.584-17.587,30.198-42.469,30.198-70.074C572.6,174.734,529.4,131.534,476.112,131.534z"/>
</svg>