<?xml version="1.0" standalone="no"?>
<!DOCTYPE svg PUBLIC "-//W3C//DTD SVG 20010904//EN"
 "http://www.w3.org/TR/2001/REC-SVG-20010904/DTD/svg10.dtd">
<svg version="1.0" xmlns="http://www.w3.org/2000/svg"
 width="937.000000pt" height="937.000000pt" viewBox="0 0 937.000000 937.000000"
 preserveAspectRatio="xMidYMid meet">
<metadata>
Created by potrace 1.14, written by Peter Selinger 2001-2017
</metadata>
<g transform="translate(0.000000,937.000000) scale(0.100000,-0.100000)"
fill="#000000" stroke="none">
<path d="M4708 7635 c-2 -1 -28 -5 -58 -8 -49 -5 -68 -9 -130 -22 -8 -2 -15
-4 -15 -5 0 -2 -38 -11 -52 -12 -7 -1 -13 -5 -13 -10 0 -4 -8 -8 -17 -8 -24 0
-148 -65 -218 -115 -62 -44 -151 -127 -195 -184 -14 -17 -30 -37 -36 -44 -11
-12 -88 -148 -90 -157 0 -3 -8 -22 -17 -43 -16 -36 -35 -98 -42 -139 -2 -10
-6 -22 -9 -26 -5 -9 -17 -142 -18 -202 -1 -44 11 -142 23 -200 54 -247 224
-484 443 -615 101 -61 236 -115 236 -95 0 6 -4 10 -10 10 -32 0 -190 174 -190
209 0 6 -4 11 -9 11 -8 0 -27 41 -31 68 -1 4 -6 13 -12 20 -6 6 -7 12 -4 12 4
0 2 8 -3 19 -23 42 -38 165 -29 246 14 136 46 225 117 325 60 83 196 196 261
215 14 4 30 11 35 15 35 26 315 62 315 40 0 -3 10 -6 23 -6 56 -4 99 -18 186
-60 75 -37 108 -60 165 -119 39 -40 76 -79 83 -88 26 -33 74 -140 93 -209 20
-71 28 -206 16 -258 -3 -14 -8 -36 -10 -50 -8 -43 -25 -91 -37 -106 -6 -8 -8
-14 -4 -14 4 0 0 -12 -10 -26 -41 -62 28 5 92 91 79 104 151 261 168 365 3 19
10 51 14 71 9 40 7 258 -3 304 -17 78 -48 180 -66 214 -10 21 -16 41 -13 45 4
3 1 6 -5 6 -7 0 -12 5 -12 11 0 10 -82 139 -105 165 -31 36 -115 123 -115 119
0 -2 -17 12 -37 30 -21 19 -44 35 -50 35 -7 0 -13 4 -13 9 0 14 -198 109 -265
126 -77 21 -92 24 -140 30 -49 7 -182 14 -187 10z"/>
<path d="M8828 5735 c-2 -2 -36 -6 -75 -10 -40 -3 -82 -8 -93 -11 -11 -2 -30
-6 -42 -9 -41 -9 -123 -38 -132 -46 -6 -5 -18 -9 -28 -9 -10 0 -18 -3 -18 -8
0 -4 -15 -13 -32 -21 -18 -8 -35 -17 -38 -20 -3 -4 -23 -18 -45 -32 -42 -28
-175 -148 -175 -159 0 -4 45 -17 100 -30 55 -13 100 -28 100 -33 0 -6 3 -8 6
-4 8 8 90 -34 179 -91 96 -62 195 -142 290 -235 134 -132 201 -168 334 -182
62 -7 63 -17 -15 86 -87 116 -128 285 -101 419 15 76 103 272 153 344 20 29
18 33 -23 41 -39 8 -338 16 -345 10z"/>
<path d="M2407 5704 c-1 -1 -58 -5 -127 -8 -69 -3 -145 -8 -170 -11 -25 -2
-72 -7 -105 -10 -33 -4 -78 -9 -100 -12 -22 -4 -50 -6 -62 -7 -13 0 -23 -4
-23 -9 0 -4 -4 -6 -10 -2 -8 5 -56 -1 -150 -19 -14 -3 -43 -8 -65 -11 -67 -11
-77 -13 -160 -30 -44 -9 -87 -19 -95 -22 -8 -3 -24 -8 -35 -10 -34 -6 -258
-64 -310 -80 -213 -66 -569 -193 -623 -223 -9 -5 -39 -19 -67 -31 -169 -72
-188 -84 -175 -107 9 -18 65 -176 100 -282 12 -36 25 -74 30 -85 4 -11 22 -63
40 -115 18 -52 36 -104 40 -115 5 -11 16 -42 25 -70 9 -27 18 -57 22 -65 3 -8
7 -18 8 -22 2 -5 3 -9 4 -10 11 -18 59 -167 60 -185 2 -25 16 -12 46 39 17 28
57 86 89 127 66 85 244 261 264 261 6 0 12 4 12 8 0 8 51 46 150 112 67 45
120 75 270 153 63 33 125 66 137 73 12 8 29 14 38 14 8 0 15 5 15 10 0 6 6 10
13 10 6 0 26 7 42 16 101 52 462 194 496 194 10 0 20 4 23 9 3 4 20 12 38 16
40 9 41 9 98 25 43 12 54 14 101 25 11 2 28 6 37 9 9 3 34 7 56 11 21 3 41 7
45 9 6 4 87 16 141 22 14 1 25 3 25 4 0 13 403 18 515 5 41 -4 86 -9 100 -11
24 -2 51 -7 110 -19 14 -3 41 -8 60 -12 42 -9 48 -10 58 -13 4 -1 12 -3 17 -4
34 -6 248 -72 280 -86 11 -5 43 -17 70 -26 28 -9 64 -22 80 -29 17 -8 82 -35
145 -60 63 -26 139 -58 168 -71 29 -13 54 -24 56 -24 2 0 25 -10 52 -22 27
-12 51 -23 54 -23 3 -1 18 -7 33 -13 16 -7 30 -12 31 -12 2 0 21 -8 42 -17 22
-9 44 -18 49 -19 6 -2 71 -24 145 -49 74 -26 142 -48 150 -50 8 -2 69 -17 135
-33 107 -27 222 -51 325 -66 19 -3 46 -8 60 -10 25 -5 124 -15 215 -21 159
-12 430 -3 593 20 84 11 147 22 147 25 0 1 16 3 35 6 46 6 270 64 293 76 10 5
30 12 44 14 14 3 38 11 54 19 15 8 33 15 39 15 5 0 32 10 58 21 96 43 110 49
120 49 6 0 12 3 14 8 2 4 39 25 83 47 82 40 269 158 280 175 3 5 -29 -12 -72
-38 -43 -27 -93 -54 -110 -61 -18 -8 -33 -17 -33 -22 0 -5 -6 -9 -13 -9 -7 0
-33 -10 -58 -22 -24 -11 -50 -21 -56 -21 -7 0 -13 -3 -13 -7 0 -3 -33 -17 -72
-29 -40 -13 -84 -27 -98 -32 -14 -5 -34 -11 -45 -13 -11 -3 -42 -10 -70 -16
-27 -6 -61 -14 -75 -16 -14 -2 -34 -6 -45 -9 -123 -27 -462 -27 -645 1 -14 2
-41 6 -60 8 -19 3 -66 12 -105 21 -38 8 -81 17 -95 20 -54 10 -310 85 -403
119 -53 19 -98 35 -100 35 -3 0 -17 5 -92 33 -33 12 -64 23 -70 24 -13 4 -130
51 -174 71 -18 8 -39 16 -45 18 -6 1 -24 8 -41 15 -16 7 -32 14 -35 15 -3 1
-18 8 -35 15 -16 7 -34 14 -40 16 -9 2 -304 121 -365 147 -14 6 -28 11 -32 12
-5 2 -10 4 -13 5 -3 1 -8 3 -12 5 -5 1 -15 5 -23 8 -70 30 -405 144 -445 152
-11 2 -22 5 -25 6 -3 1 -9 3 -15 4 -5 2 -13 4 -17 5 -5 1 -12 4 -18 5 -5 1
-11 3 -12 5 -2 1 -11 3 -22 5 -10 2 -39 9 -65 15 -25 6 -55 12 -66 15 -11 2
-51 10 -90 18 -73 16 -106 22 -215 37 -139 19 -185 24 -355 36 -85 6 -404 12
-408 8z"/>
<path d="M3175 4711 c-3 -2 -22 -5 -42 -7 -21 -1 -49 -5 -63 -7 -14 -3 -54
-10 -90 -17 -36 -6 -71 -17 -79 -23 -8 -7 -16 -11 -18 -9 -5 5 -63 -9 -83 -18
-8 -5 -45 -22 -82 -39 l-66 -31 3 -58 c5 -72 15 -167 21 -212 9 -60 14 -94 19
-120 2 -14 7 -41 9 -60 7 -42 9 -55 31 -145 9 -38 18 -79 21 -90 2 -11 13 -51
25 -90 11 -38 21 -74 23 -80 12 -45 31 -102 37 -110 4 -6 10 -22 12 -36 5 -25
26 -79 71 -184 41 -96 159 -330 170 -337 6 -5 7 -8 1 -8 -6 0 -6 -3 0 -8 6 -4
24 -29 40 -57 29 -51 154 -236 165 -245 3 -3 19 -23 35 -45 17 -22 32 -42 35
-45 3 -3 27 -32 55 -65 87 -104 107 -125 260 -279 170 -171 270 -263 445 -409
34 -28 265 -210 292 -229 12 -9 43 -32 68 -50 62 -45 110 -78 114 -78 2 0 7
16 10 35 4 19 13 50 22 70 8 19 15 38 15 42 1 5 17 32 35 61 19 29 34 55 34
58 0 3 8 16 18 29 9 12 24 33 32 45 54 80 190 249 325 405 137 158 372 397
629 640 81 77 182 173 223 213 42 39 77 72 78 72 2 0 37 33 78 73 42 39 112
106 155 147 113 106 318 299 362 340 21 19 89 83 151 142 63 59 134 125 159
148 25 23 97 91 160 150 63 59 146 137 184 173 67 62 68 65 47 76 -44 24 -180
14 -266 -19 -16 -6 -31 -11 -32 -11 -4 1 -33 -10 -73 -26 -19 -8 -42 -16 -50
-18 -8 -2 -51 -18 -95 -34 -44 -17 -82 -31 -85 -32 -3 -1 -9 -3 -15 -5 -5 -1
-54 -17 -108 -34 -54 -16 -106 -32 -115 -34 -9 -1 -24 -6 -32 -9 -17 -7 -173
-46 -210 -53 -14 -2 -59 -11 -100 -19 -196 -38 -471 -46 -655 -19 -22 3 -83
14 -135 25 -52 11 -102 22 -110 23 -8 2 -22 6 -30 9 -8 3 -49 15 -90 27 -41
12 -82 24 -90 28 -8 3 -19 6 -25 8 -5 1 -41 14 -80 29 -38 14 -74 28 -80 29
-5 2 -19 7 -30 11 -11 4 -90 34 -175 67 -85 33 -163 63 -172 69 -10 5 -35 15
-55 23 -21 7 -107 39 -191 70 -85 31 -161 58 -170 59 -9 1 -21 5 -27 9 -11 6
-213 57 -255 63 -14 3 -34 6 -45 8 -11 3 -45 8 -75 12 -30 4 -68 10 -85 12
-43 6 -385 10 -390 4z"/>
</g>
</svg>
